# xmcd
#
# Track frame offsets: 
#        150
#        10242
#        26771
#        46156
#        60109
#        80213
#        93664
#        105747
#        128684
#        139444
#        165580
#
# Disc length: 2343 seconds
#
# Revision: 2
# Processed by: cddbd v1.5.2PL0 Copyright (c) Steve Scherf et al.
# Submitted via: ExactAudioCopy v0.99pb5
#
DISCID=8c09250b
DTITLE=Cuff The Duke - Way Down Here
DYEAR=2009
DGENRE=Indie
TTITLE0=You were right
TTITLE1=Follow me
TTITLE2=It's all a blur
TTITLE3=The words you ignore
TTITLE4=Promises
TTITLE5=Listen to your heart
TTITLE6=Rocking chair
TTITLE7=Like the morning
TTITLE8=Another day in purgatory
TTITLE9=Need you
TTITLE10=(Untitled)
EXTD=
EXTT0=
EXTT1=
EXTT2=
EXTT3=
EXTT4=
EXTT5=
EXTT6=
EXTT7=
EXTT8=
EXTT9=
EXTT10=
PLAYORDER=
